<svg xmlns="http://www.w3.org/2000/svg" xmlns:xlink="http://www.w3.org/1999/xlink" contentStyleType="text/css" data-diagram-type="CLASS" height="1270px" preserveAspectRatio="none" style="width:1187px;height:1270px;background:#1B1B1B;" version="1.1" viewBox="0 0 1187 1270" width="1187px" zoomAndPan="magnify"><defs/><g><rect fill="#1B1B1B" height="1270" style="stroke:none;stroke-width:1;" width="1187" x="0" y="0"/><!--cluster ups--><g class="cluster" data-qualified-name="ups" data-source-line="7" id="ent0004"><rect fill="none" height="1257.5" rx="2.5" ry="2.5" style="stroke:#FFFFFF;stroke-width:1.5;" width="576" x="7" y="7"/><text fill="#FFFFFF" font-family="sans-serif" font-size="14" font-weight="bold" lengthAdjust="spacing" textLength="28.3213" x="280.8394" y="21.9951">ups</text></g><!--cluster algoritmos--><g class="cluster" data-qualified-name="ups.algoritmos" data-source-line="7" id="ent0005"><rect fill="none" height="1190.5" rx="2.5" ry="2.5" style="stroke:#FFFFFF;stroke-width:1.5;" width="528" x="31" y="50"/><text fill="#FFFFFF" font-family="sans-serif" font-size="14" font-weight="bold" lengthAdjust="spacing" textLength="84.8203" x="252.5898" y="64.9951">algoritmos</text></g><!--cluster appgestiontareas--><g class="cluster" data-qualified-name="ups.algoritmos.appgestiontareas" data-source-line="7" id="ent0006"><rect fill="none" height="1123.5" rx="2.5" ry="2.5" style="stroke:#FFFFFF;stroke-width:1.5;" width="480" x="55" y="93"/><text fill="#FFFFFF" font-family="sans-serif" font-size="14" font-weight="bold" lengthAdjust="spacing" textLength="138.7354" x="225.6323" y="107.9951">appgestiontareas</text></g><!--cluster modelo--><g class="cluster" data-qualified-name="ups.algoritmos.appgestiontareas.modelo" data-source-line="6" id="ent0002"><rect fill="none" height="213.08" rx="2.5" ry="2.5" style="stroke:#FFFFFF;stroke-width:1.5;" width="334" x="128" y="979.42"/><text fill="#FFFFFF" font-family="sans-serif" font-size="14" font-weight="bold" lengthAdjust="spacing" textLength="58.1396" x="265.9302" y="994.4151">modelo</text></g><!--cluster controlador--><g class="cluster" data-qualified-name="ups.algoritmos.appgestiontareas.controlador" data-source-line="18" id="ent0007"><rect fill="none" height="598.83" rx="2.5" ry="2.5" style="stroke:#FFFFFF;stroke-width:1.5;" width="432" x="79" y="316.59"/><text fill="#FFFFFF" font-family="sans-serif" font-size="14" font-weight="bold" lengthAdjust="spacing" textLength="91.8887" x="249.0557" y="331.5851">controlador</text></g><!--cluster vista--><g class="cluster" data-qualified-name="ups.algoritmos.appgestiontareas.vista" data-source-line="54" id="ent0010"><rect fill="none" height="131.59" rx="2.5" ry="2.5" style="stroke:#FFFFFF;stroke-width:1.5;" width="238" x="193" y="136"/><text fill="#FFFFFF" font-family="sans-serif" font-size="14" font-weight="bold" lengthAdjust="spacing" textLength="38.3975" x="292.8013" y="150.9951">vista</text></g><!--class Tarea--><g class="entity" data-qualified-name="ups.algoritmos.appgestiontareas.modelo.Tarea" data-source-line="7" id="ent0003"><rect fill="#313139" height="162.0781" rx="2.5" ry="2.5" style="stroke:#E7E7E7;stroke-width:0.5;" width="301.7754" x="144.11" y="1014.42"/><ellipse cx="270.7081" cy="1030.42" fill="#2E5233" rx="11" ry="11" style="stroke:#E7E7E7;stroke-width:1;"/><path d="M273.6769,1036.0606 Q273.0988,1036.3575 272.4581,1036.4981 Q271.8175,1036.6544 271.1144,1036.6544 Q268.6144,1036.6544 267.2863,1035.0138 Q265.9738,1033.3575 265.9738,1030.2325 Q265.9738,1027.1075 267.2863,1025.4513 Q268.6144,1023.795 271.1144,1023.795 Q271.8175,1023.795 272.4581,1023.9513 Q273.1144,1024.1075 273.6769,1024.4044 L273.6769,1027.1231 Q273.0519,1026.545 272.4581,1026.2794 Q271.8644,1025.9981 271.2394,1025.9981 Q269.8956,1025.9981 269.2081,1027.0763 Q268.5206,1028.1388 268.5206,1030.2325 Q268.5206,1032.3263 269.2081,1033.4044 Q269.8956,1034.4669 271.2394,1034.4669 Q271.8644,1034.4669 272.4581,1034.2013 Q273.0519,1033.92 273.6769,1033.3419 L273.6769,1036.0606 Z " fill="#FFFFFF"/><text fill="#FFFFFF" font-family="sans-serif" font-size="14" lengthAdjust="spacing" textLength="40.0791" x="291.2081" y="1035.2667">Tarea</text><line style="stroke:#E7E7E7;stroke-width:0.5;" x1="145.11" x2="444.8854" y1="1046.42" y2="1046.42"/><text fill="#FFFFFF" font-family="sans-serif" font-size="14" lengthAdjust="spacing" textLength="96.6465" x="150.11" y="1063.4151">-titulo : String</text><text fill="#FFFFFF" font-family="sans-serif" font-size="14" lengthAdjust="spacing" textLength="140.499" x="150.11" y="1079.712">-descripcion : String</text><text fill="#FFFFFF" font-family="sans-serif" font-size="14" lengthAdjust="spacing" textLength="157.4658" x="150.11" y="1096.0089">-completada : boolean</text><line style="stroke:#E7E7E7;stroke-width:0.5;" x1="145.11" x2="444.8854" y1="1103.3106" y2="1103.3106"/><text fill="#FFFFFF" font-family="sans-serif" font-size="14" lengthAdjust="spacing" textLength="289.7754" x="150.11" y="1120.3057">+Tarea(titulo: String, descripcion: String)</text><text fill="#FFFFFF" font-family="sans-serif" font-size="14" lengthAdjust="spacing" textLength="241.3496" x="150.11" y="1136.6026">+marcarComoCompletada() : void</text><text fill="#FFFFFF" font-family="sans-serif" font-size="14" lengthAdjust="spacing" textLength="207.1221" x="150.11" y="1152.8995">+estaCompletada() : boolean</text><text fill="#FFFFFF" font-family="sans-serif" font-size="14" lengthAdjust="spacing" textLength="133.8887" x="150.11" y="1169.1964">+toString() : String</text></g><!--class GestorTareas--><g class="entity" data-qualified-name="ups.algoritmos.appgestiontareas.controlador.GestorTareas" data-source-line="19" id="ent0008"><rect fill="#313139" height="194.6719" rx="2.5" ry="2.5" style="stroke:#E7E7E7;stroke-width:0.5;" width="400.0762" x="94.96" y="704.75"/><ellipse cx="243.7784" cy="720.75" fill="#2E5233" rx="11" ry="11" style="stroke:#E7E7E7;stroke-width:1;"/><path d="M246.7471,726.3906 Q246.169,726.6875 245.5284,726.8281 Q244.8877,726.9844 244.1846,726.9844 Q241.6846,726.9844 240.3565,725.3438 Q239.044,723.6875 239.044,720.5625 Q239.044,717.4375 240.3565,715.7813 Q241.6846,714.125 244.1846,714.125 Q244.8877,714.125 245.5284,714.2813 Q246.1846,714.4375 246.7471,714.7344 L246.7471,717.4531 Q246.1221,716.875 245.5284,716.6094 Q244.9346,716.3281 244.3096,716.3281 Q242.9659,716.3281 242.2784,717.4063 Q241.5909,718.4688 241.5909,720.5625 Q241.5909,722.6563 242.2784,723.7344 Q242.9659,724.7969 244.3096,724.7969 Q244.9346,724.7969 245.5284,724.5313 Q246.1221,724.25 246.7471,723.6719 L246.7471,726.3906 Z " fill="#FFFFFF"/><text fill="#FFFFFF" font-family="sans-serif" font-size="14" lengthAdjust="spacing" textLength="93.9395" x="264.2784" y="725.5967">GestorTareas</text><line style="stroke:#E7E7E7;stroke-width:0.5;" x1="95.96" x2="494.0362" y1="736.75" y2="736.75"/><text fill="#FFFFFF" font-family="sans-serif" font-size="14" lengthAdjust="spacing" textLength="230.8086" x="100.96" y="753.7451">-pilaPendientes : Deque&lt;Tarea&gt;</text><text fill="#FFFFFF" font-family="sans-serif" font-size="14" lengthAdjust="spacing" textLength="249.1289" x="100.96" y="770.042">-colaCompletadas : Queue&lt;Tarea&gt;</text><line style="stroke:#E7E7E7;stroke-width:0.5;" x1="95.96" x2="494.0362" y1="777.3438" y2="777.3438"/><text fill="#FFFFFF" font-family="sans-serif" font-size="14" lengthAdjust="spacing" textLength="116.5938" x="100.96" y="794.3389">+GestorTareas()</text><text fill="#FFFFFF" font-family="sans-serif" font-size="14" lengthAdjust="spacing" textLength="388.0762" x="100.96" y="810.6357">+agregarTarea(String: titulo, String: descripcion) : void</text><text fill="#FFFFFF" font-family="sans-serif" font-size="14" lengthAdjust="spacing" textLength="177.0918" x="100.96" y="826.9326">+completarTarea() : void</text><text fill="#FFFFFF" font-family="sans-serif" font-size="14" lengthAdjust="spacing" textLength="233.3994" x="100.96" y="843.2295">+eliminarTareaPendiente() : void</text><text fill="#FFFFFF" font-family="sans-serif" font-size="14" lengthAdjust="spacing" textLength="196.2393" x="100.96" y="859.5264">+verProximaTarea() : Tarea</text><text fill="#FFFFFF" font-family="sans-serif" font-size="14" lengthAdjust="spacing" textLength="257.9131" x="100.96" y="875.8232">+getListaPendientes() : List&lt;Tarea&gt;</text><text fill="#FFFFFF" font-family="sans-serif" font-size="14" lengthAdjust="spacing" textLength="272.5215" x="100.96" y="892.1201">+getListaCompletadas() : List&lt;Tarea&gt;</text></g><!--class InterfazTareasController--><g class="entity" data-qualified-name="ups.algoritmos.appgestiontareas.controlador.InterfazTareasController" data-source-line="33" id="ent0009"><rect fill="#313139" height="276.1563" rx="2.5" ry="2.5" style="stroke:#E7E7E7;stroke-width:0.5;" width="353.9746" x="135.01" y="351.59"/><ellipse cx="222.616" cy="367.59" fill="#2E5233" rx="11" ry="11" style="stroke:#E7E7E7;stroke-width:1;"/><path d="M225.5847,373.2306 Q225.0066,373.5275 224.366,373.6681 Q223.7253,373.8244 223.0222,373.8244 Q220.5222,373.8244 219.1941,372.1838 Q217.8816,370.5275 217.8816,367.4025 Q217.8816,364.2775 219.1941,362.6213 Q220.5222,360.965 223.0222,360.965 Q223.7253,360.965 224.366,361.1213 Q225.0222,361.2775 225.5847,361.5744 L225.5847,364.2931 Q224.9597,363.715 224.366,363.4494 Q223.7722,363.1681 223.1472,363.1681 Q221.8035,363.1681 221.116,364.2463 Q220.4285,365.3088 220.4285,367.4025 Q220.4285,369.4963 221.116,370.5744 Q221.8035,371.6369 223.1472,371.6369 Q223.7722,371.6369 224.366,371.3713 Q224.9597,371.09 225.5847,370.5119 L225.5847,373.2306 Z " fill="#FFFFFF"/><text fill="#FFFFFF" font-family="sans-serif" font-size="14" lengthAdjust="spacing" textLength="170.2627" x="243.116" y="372.4367">InterfazTareasController</text><line style="stroke:#E7E7E7;stroke-width:0.5;" x1="136.01" x2="487.9846" y1="383.59" y2="383.59"/><text fill="#FFFFFF" font-family="sans-serif" font-size="14" lengthAdjust="spacing" textLength="157.2129" x="141.01" y="400.5851">-gestor : GestorTareas</text><text fill="#FFFFFF" font-family="sans-serif" font-size="14" lengthAdjust="spacing" textLength="4.4502" x="141.01" y="416.882">&#160;</text><text fill="#FFFFFF" font-family="sans-serif" font-size="14" lengthAdjust="spacing" textLength="246.9414" x="141.01" y="433.1789">-listaPendientes : ListView&lt;Tarea&gt;</text><text fill="#FFFFFF" font-family="sans-serif" font-size="14" lengthAdjust="spacing" textLength="261.5498" x="141.01" y="449.4757">-listaCompletadas : ListView&lt;Tarea&gt;</text><text fill="#FFFFFF" font-family="sans-serif" font-size="14" lengthAdjust="spacing" textLength="141.4629" x="141.01" y="465.7726">-txtTitulo : TextField</text><text fill="#FFFFFF" font-family="sans-serif" font-size="14" lengthAdjust="spacing" textLength="183.3398" x="141.01" y="482.0695">-txtDescripcion : TextArea</text><text fill="#FFFFFF" font-family="sans-serif" font-size="14" lengthAdjust="spacing" textLength="130.2588" x="141.01" y="498.3664">-Label : lblProxima</text><line style="stroke:#E7E7E7;stroke-width:0.5;" x1="136.01" x2="487.9846" y1="505.6681" y2="505.6681"/><text fill="#FFFFFF" font-family="sans-serif" font-size="14" lengthAdjust="spacing" textLength="124.25" x="141.01" y="522.6632">+initialize() : void</text><text fill="#FFFFFF" font-family="sans-serif" font-size="14" lengthAdjust="spacing" textLength="272.6309" x="141.01" y="538.9601">+onAgregar(event: ActionEvent) : void</text><text fill="#FFFFFF" font-family="sans-serif" font-size="14" lengthAdjust="spacing" textLength="289.7686" x="141.01" y="555.257">+onCompletar(event: ActionEvent) : void</text><text fill="#FFFFFF" font-family="sans-serif" font-size="14" lengthAdjust="spacing" textLength="273.9365" x="141.01" y="571.5539">+onEliminar(event: ActionEvent) : void</text><text fill="#FFFFFF" font-family="sans-serif" font-size="14" lengthAdjust="spacing" textLength="297.6777" x="141.01" y="587.8507">+onVerProxima(event: ActionEvent) : void</text><text fill="#FFFFFF" font-family="sans-serif" font-size="14" lengthAdjust="spacing" textLength="341.9746" x="141.01" y="604.1476">+alternarModoOscuro(event: ActionEvent) : void</text><text fill="#FFFFFF" font-family="sans-serif" font-size="14" lengthAdjust="spacing" textLength="168.2461" x="141.01" y="620.4445">-actualizarListas() : void</text></g><!--class MainApp--><g class="entity" data-qualified-name="ups.algoritmos.appgestiontareas.vista.MainApp" data-source-line="55" id="ent0011"><rect fill="#313139" height="80.5938" rx="2.5" ry="2.5" style="stroke:#E7E7E7;stroke-width:0.5;" width="205.2656" x="209.37" y="171"/><ellipse cx="277.3671" cy="187" fill="#2E5233" rx="11" ry="11" style="stroke:#E7E7E7;stroke-width:1;"/><path d="M280.3358,192.6406 Q279.7577,192.9375 279.1171,193.0781 Q278.4764,193.2344 277.7733,193.2344 Q275.2733,193.2344 273.9452,191.5938 Q272.6327,189.9375 272.6327,186.8125 Q272.6327,183.6875 273.9452,182.0313 Q275.2733,180.375 277.7733,180.375 Q278.4764,180.375 279.1171,180.5313 Q279.7733,180.6875 280.3358,180.9844 L280.3358,183.7031 Q279.7108,183.125 279.1171,182.8594 Q278.5233,182.5781 277.8983,182.5781 Q276.5546,182.5781 275.8671,183.6563 Q275.1796,184.7188 275.1796,186.8125 Q275.1796,188.9063 275.8671,189.9844 Q276.5546,191.0469 277.8983,191.0469 Q278.5233,191.0469 279.1171,190.7813 Q279.7108,190.5 280.3358,189.9219 L280.3358,192.6406 Z " fill="#FFFFFF"/><text fill="#FFFFFF" font-family="sans-serif" font-size="14" lengthAdjust="spacing" textLength="60.7715" x="297.8671" y="191.8467">MainApp</text><line style="stroke:#E7E7E7;stroke-width:0.5;" x1="210.37" x2="413.6356" y1="203" y2="203"/><line style="stroke:#E7E7E7;stroke-width:0.5;" x1="210.37" x2="413.6356" y1="211" y2="211"/><text fill="#FFFFFF" font-family="sans-serif" font-size="14" lengthAdjust="spacing" textLength="186.9902" x="215.37" y="227.9951">+start(stage: Stage) : void</text><text fill="#FFFFFF" font-family="sans-serif" font-size="14" lengthAdjust="spacing" textLength="193.2656" x="215.37" y="244.292">+main(args: String[]) : void</text></g><path d="M945.11,736.69 L945.11,760.3892 L331.7686,748.8984 L945.11,768.3892 L945.11,792.0884 A0,0 0 0 0 945.11,792.0884 L1159.9039,792.0884 A0,0 0 0 0 1159.9039,792.0884 L1159.9039,746.69 L1149.9039,736.69 L945.11,736.69 A0,0 0 0 0 945.11,736.69" fill="#714137" style="stroke:#E7E7E7;stroke-width:0.5;"/><path d="M1149.9039,736.69 L1149.9039,746.69 L1159.9039,746.69 L1149.9039,736.69" fill="#714137" style="stroke:#E7E7E7;stroke-width:0.5;"/><text fill="#FFFFFF" font-family="sans-serif" font-size="13" font-weight="bold" lengthAdjust="spacing" textLength="82.0562" x="951.11" y="753.7569">Estructura:</text><text fill="#FFFFFF" font-family="sans-serif" font-size="13" lengthAdjust="spacing" textLength="77.7397" x="1037.2985" y="753.7569">ArrayDeque</text><text fill="#FFFFFF" font-family="sans-serif" font-size="13" font-weight="bold" lengthAdjust="spacing" textLength="28.5962" x="951.11" y="768.8897">Rol:</text><text fill="#FFFFFF" font-family="sans-serif" font-size="13" lengthAdjust="spacing" textLength="79.0537" x="983.8385" y="768.8897">Stack (LIFO)</text><text fill="#FFFFFF" font-family="sans-serif" font-size="13" lengthAdjust="spacing" textLength="193.7939" x="951.11" y="784.0225">Requisito: Tareas pendientes.</text><path d="M945.11,802.0884 L945.11,825.7877 L350.0889,765.1953 L945.11,833.7877 L945.11,857.4869 A0,0 0 0 0 945.11,857.4869 L1180.8829,857.4869 A0,0 0 0 0 1180.8829,857.4869 L1180.8829,812.0884 L1170.8829,802.0884 L945.11,802.0884 A0,0 0 0 0 945.11,802.0884" fill="#714137" style="stroke:#E7E7E7;stroke-width:0.5;"/><path d="M1170.8829,802.0884 L1170.8829,812.0884 L1180.8829,812.0884 L1170.8829,802.0884" fill="#714137" style="stroke:#E7E7E7;stroke-width:0.5;"/><text fill="#FFFFFF" font-family="sans-serif" font-size="13" font-weight="bold" lengthAdjust="spacing" textLength="82.0562" x="951.11" y="819.1553">Estructura:</text><text fill="#FFFFFF" font-family="sans-serif" font-size="13" lengthAdjust="spacing" textLength="65.5967" x="1037.2985" y="819.1553">LinkedList</text><text fill="#FFFFFF" font-family="sans-serif" font-size="13" font-weight="bold" lengthAdjust="spacing" textLength="28.5962" x="951.11" y="834.2881">Rol:</text><text fill="#FFFFFF" font-family="sans-serif" font-size="13" lengthAdjust="spacing" textLength="86.0044" x="983.8385" y="834.2881">Queue (FIFO)</text><text fill="#FFFFFF" font-family="sans-serif" font-size="13" lengthAdjust="spacing" textLength="214.7729" x="951.11" y="849.421">Requisito: Historial completadas.</text><g class="entity" data-qualified-name="GMN17" data-source-line="86" id="ent0018"><path d="M599.44,766.82 L599.44,837.3513 A0,0 0 0 0 599.44,837.3513 L910.5596,837.3513 A0,0 0 0 0 910.5596,837.3513 L910.5596,776.82 L900.5596,766.82 L709.41,766.82 L489.31,614.92 L701.41,766.82 L599.44,766.82 A0,0 0 0 0 599.44,766.82" fill="#714137" style="stroke:#E7E7E7;stroke-width:0.5;"/><path d="M900.5596,766.82 L900.5596,776.82 L910.5596,776.82 L900.5596,766.82" fill="#714137" style="stroke:#E7E7E7;stroke-width:0.5;"/><text fill="#FFFFFF" font-family="sans-serif" font-size="13" font-weight="bold" lengthAdjust="spacing" textLength="91.3745" x="605.44" y="783.8869">Patr&#243;n MVC:</text><text fill="#FFFFFF" font-family="sans-serif" font-size="13" lengthAdjust="spacing" textLength="290.1196" x="605.44" y="799.0197">Este controlador maneja SOLO la UI (JavaFX,</text><text fill="#FFFFFF" font-family="sans-serif" font-size="13" lengthAdjust="spacing" textLength="269.6484" x="605.44" y="814.1525">eventos, CSS) y delega la l&#243;gica de datos</text><text fill="#FFFFFF" font-family="sans-serif" font-size="13" lengthAdjust="spacing" textLength="156.7998" x="605.44" y="829.2853">a la clase GestorTareas.</text></g><!--link MainApp to InterfazTareasController--><g class="link" data-entity-1="ent0011" data-entity-2="ent0009" data-link-type="dependency" data-source-line="63" id="lnk12"><path codeLine="63" d="M312,251.89 C312,278.31 312,308.76 312,345.15" fill="none" id="MainApp-to-InterfazTareasController" style="stroke:#E7E7E7;stroke-width:1;stroke-dasharray:7,7;"/><polygon fill="#E7E7E7" points="312,351.15,316,342.15,312,346.15,308,342.15,312,351.15" style="stroke:#E7E7E7;stroke-width:1;"/><text fill="#FFFFFF" font-family="sans-serif" font-size="13" lengthAdjust="spacing" textLength="145.7422" x="313" y="296.6569">Carga v&#237;a FXMLLoader</text></g><!--reverse link InterfazTareasController to GestorTareas--><g class="link" data-entity-1="ent0009" data-entity-2="ent0008" data-link-type="composition" data-source-line="66" id="lnk13"><path codeLine="66" d="M303.8147,640.1621 C302.4047,665.9421 301.61,680.41 300.28,704.62" fill="none" id="InterfazTareasController-backto-GestorTareas" style="stroke:#E7E7E7;stroke-width:1;"/><polygon fill="#E7E7E7" points="304.47,628.18,300.1483,633.9526,303.8147,640.1621,308.1364,634.3895,304.47,628.18" style="stroke:#E7E7E7;stroke-width:1;"/><text fill="#FFFFFF" font-family="sans-serif" font-size="13" lengthAdjust="spacing" textLength="121.7671" x="303" y="670.8169">Usa (Composici&#243;n)</text><text fill="#FFFFFF" font-family="sans-serif" font-size="13" lengthAdjust="spacing" textLength="8.271" x="295.8826" y="647.7791">1</text><text fill="#FFFFFF" font-family="sans-serif" font-size="13" lengthAdjust="spacing" textLength="8.271" x="292.3885" y="693.6555">1</text></g><!--reverse link GestorTareas to Tarea--><g class="link" data-entity-1="ent0008" data-entity-2="ent0003" data-link-type="aggregation" data-source-line="69" id="lnk14"><path codeLine="69" d="M295,911.7 C295,948.81 295,978.73 295,1014.14" fill="none" id="GestorTareas-backto-Tarea" style="stroke:#E7E7E7;stroke-width:1;"/><polygon fill="none" points="295,899.7,291,905.7,295,911.7,299,905.7,295,899.7" style="stroke:#E7E7E7;stroke-width:1;"/><text fill="#FFFFFF" font-family="sans-serif" font-size="13" lengthAdjust="spacing" textLength="70.4526" x="299.6436" y="944.4869">Administra</text><text fill="#FFFFFF" font-family="sans-serif" font-size="13" lengthAdjust="spacing" textLength="77.7397" x="296" y="959.6197">(Pila y Cola)</text><text fill="#FFFFFF" font-family="sans-serif" font-size="13" lengthAdjust="spacing" textLength="8.271" x="286.7163" y="919.4911">1</text><text fill="#FFFFFF" font-family="sans-serif" font-size="13" lengthAdjust="spacing" textLength="6.5" x="288.7553" y="1003.3024">*</text></g><!--SRC=[bLRDRXit4BxlKmnqyJgnrAQz2OQ1ZIod2jQMAic6WRQ7qIwpPSmbjoHNjLFaHV8EEUNMgr-iG-vAubfou0gm9N8-pjytCwIvux92ZILa0er9hDLyLLisoPHSy4yCVepC5b8moJJFphcf13w0rJKBf1LcTrYmXNqG33JBBCf2i2WwWkHZRIoMoe2Wlmh_gfbb1X1i3SoGcipM6kaC2iWPJAHbGl3tKQiHUdLb1YWAfRabBGEigeBESIKjqY4pA5NEXEh1Fn7GnqS2IoTgTzod3vRRMYWOmeA2b4KWoPd9DAyoqdX8dAco4inYZYHTAIKOogtuTMCfRhHlJf-4EZURny6X4dM6UgHADTfgZuz9_rhnFC1HdFW4iU-1LOq1BmxS_nnzZbwUHQBSQYKmLxgRodS4Kzg7QOAC7a4wVJSP9J2xdYSGloKxVIPpuCIVbkeuo6351Sv8nfbqp0_Xd54Hd7gLPvrCYo1Q1_orPll08FJGjpXCC1QQ5TX8uYOdmxO4Jc2p3aWwaFiDxwsIG-m8NdBP0hO17aAkcPvfTSzBt2dplm9CmMpAYUzTfZpCxJtDm0uSfEiWcYfWnwHhBVq1FpNv6ZM42wOxh8wcLylvD4tEftCu7yFDPB4aUYyqeJs_gIfu5h9RU0x8TaZ6Fbb7C1QifBXe25pSNgQ11j4DkmtZXhE_zsj4F8dwks1xRvURjb-oUtl1cSYxylDEypjG4jBIXnHNJ918h4HBuQ52v99RZe9cvY7wbKoQUepPca8SGfAvpXkxnK7u9i0N7nYtfVXI_Css85zs0eNhQjINAbTJazLQlUHS7v26kqiBQb-kffkT_pUXrav3TpPT8fT9LGK5_1e8f6rC_mlcnY5z7OYdf8Cnwi9i9kPlV-nxTWJpSPgC9jEhyO8MRmPRUpIy2wJ-zvKCDCnWpMLM2wH4mQwneWr-C3Xxllk6q1jvVUl7h-WrfWfpfdlEWvy6r3U1IdT5aXcV2xXU96x19Iranf64ecr3I1-_KQEgw5cplJSzUDNl- -_EZ2T_hWr2x8fG6Pxnns_os3lpitUcDO0vLHovGNTt-VYli9mgjhruJTHHw2meP-bLhxsOoKIoFVwxZ6TqGy03XIcmiNGrNIOB6D_EKhfYbfCRMimIkcVI1EQFNzxEQJUAfBBqrk35dnRKXquCms7tpY5EJrTdu-rhOtZwm-eC4gtnmTz5ZNokH2EWgidk84ud5rCtwUO4uOPRrGvjUiLiDGyYDnIT9z_tvydTTjYXbCixbhjEUUAGlmTf2kyxz0jtLcZq1E-KVQTMobfLEg-UAuV6u0oj9hRXycRa3TCk-SWWU1nGwqZs4M4nJQUk-Aud4B_7DLxSdX3Q3mLbJc2qM1mJerIGDFSSJlXwT2KAEHA4m7xVDJBh96ld_Ny0]--></g></svg>